<svg width="146px" height="146px" viewBox="0 0 146 146" version="1.1" xmlns="http://www.w3.org/2000/svg" xmlns:xlink="http://www.w3.org/1999/xlink">
    <g stroke="none" stroke-width="1" fill="none" fill-rule="evenodd">
        <g fill="#FFFFFF">
            <path d="M73.5,28 C89.1794306,28 103.00649,35.9309454 111.188398,48.0000573 L75.2820513,48 L59,73.9583333 L75.2820513,100 L110.489714,100.001437 C102.232672,111.505886 88.7415082,119 73.5,119 C48.3710439,119 28,98.6289561 28,73.5 C28,48.3710439 48.3710439,28 73.5,28 Z" id="Combined-Shape"></path>
            <path d="M116.271976,57.9457349 C118.037182,62.7986581 119,68.0368899 119,73.5 C119,79.3290815 117.903864,84.9021465 115.90647,90.0243153 L113,90 L80,90 L71,74 L80,58 L113,58 Z" id="Combined-Shape"></path>
            <path d="M21.2362656,57.9981168 L21.236,57.9991168 L41,58 L41,91 L21.8703866,90.9999568 L21.8703866,90.9999568 L2.23603795,91.000355 C0.775887547,85.2425381 0,79.2118781 0,73 C0,67.8579284 0.531654106,62.8400312 1.54299167,57.9982791 L21.2362656,57.9981168 Z" id="Combined-Shape"></path>
            <path d="M73,0 C113.316787,0 146,32.6832133 146,73 C146,113.316787 113.316787,146 73,146 C41.8421765,146 15.2435702,126.47967 4.76650418,99.0013333 L25.3220454,99.0013967 C34.4714895,116.250933 52.6136739,128 73.5,128 C103.599519,128 128,103.599519 128,73.5 C128,43.4004811 103.599519,19 73.5,19 C51.8153793,19 33.0886762,31.6643512 24.3127046,50.0002398 L3.69706363,50.0001571 C13.3322242,20.9527408 40.7192247,0 73,0 Z" id="Combined-Shape"></path>
        </g>
    </g>
</svg>
